<svg xmlns="http://www.w3.org/2000/svg" xmlns:xlink="http://www.w3.org/1999/xlink" width="512" zoomAndPan="magnify" viewBox="0 0 384 383.999986" height="512" preserveAspectRatio="xMidYMid meet" version="1.0"><defs><g/><clipPath id="be7fc8d0fa"><path d="M 142 0 L 384 0 L 384 384 L 142 384 Z M 142 0 " clip-rule="nonzero"/></clipPath><clipPath id="c578381efe"><path d="M 242.253906 -44.25 L 548.105469 26.011719 L 448.652344 458.933594 L 142.800781 388.671875 Z M 242.253906 -44.25 " clip-rule="nonzero"/></clipPath></defs><rect x="-38.4" width="460.8" fill="#ffffff" y="-38.399999" height="460.799983" fill-opacity="1"/><rect x="-38.4" width="460.8" fill="#1f2334" y="-38.399999" height="460.799983" fill-opacity="1"/><g clip-path="url(#be7fc8d0fa)"><g clip-path="url(#c578381efe)"><path fill="#6e40f3" d="M 242.253906 -44.25 L 548.105469 26.011719 L 448.59375 459.1875 L 142.742188 388.925781 Z M 242.253906 -44.25 " fill-opacity="1" fill-rule="nonzero"/></g></g><g fill="#ffffff" fill-opacity="1"><g transform="translate(124.72439, 303.905902)"><g><path d="M 31.90625 2.21875 C 14.707031 2.21875 3.289062 -3.835938 -2.34375 -15.953125 C -7.988281 -28.066406 -7.945312 -46.421875 -2.21875 -71.015625 L 21.359375 -173.640625 C 26.535156 -195.648438 35.316406 -212.296875 47.703125 -223.578125 C 60.097656 -234.859375 76.003906 -240.5 95.421875 -240.5 C 111.140625 -240.5 122.601562 -237.351562 129.8125 -231.0625 C 137.03125 -224.78125 140.914062 -215.628906 141.46875 -203.609375 C 142.03125 -191.585938 140.179688 -176.144531 135.921875 -157.28125 L 89.328125 -157.28125 L 94.3125 -178.640625 C 95.613281 -184.367188 95.847656 -188.804688 95.015625 -191.953125 C 94.179688 -195.097656 91.726562 -196.671875 87.65625 -196.671875 C 78.59375 -196.671875 72.675781 -190.753906 69.90625 -178.921875 L 43.28125 -63.515625 C 41.613281 -56.304688 41.238281 -50.851562 42.15625 -47.15625 C 43.082031 -43.457031 45.859375 -41.609375 50.484375 -41.609375 C 55.109375 -41.609375 58.804688 -43.457031 61.578125 -47.15625 C 64.359375 -50.851562 66.578125 -56.304688 68.234375 -63.515625 L 76.015625 -97.640625 L 63.25 -97.640625 L 72.6875 -138.703125 L 130.9375 -138.703125 L 99.03125 0 L 79.890625 0 L 76.28125 -19.96875 C 64.445312 -5.175781 49.65625 2.21875 31.90625 2.21875 Z M 31.90625 2.21875 "/></g></g></g></svg>